<?xml version="1.0" standalone="no"?><svg xmlns="http://www.w3.org/2000/svg" viewBox="0 0 1440 320"><path fill="#BFA393" fill-opacity="1" d="M0,0L26.7,32C53.3,64,107,128,160,133.3C213.3,139,267,85,320,101.3C373.3,117,427,203,480,218.7C533.3,235,587,181,640,160C693.3,139,747,149,800,128C853.3,107,907,53,960,42.7C1013.3,32,1067,64,1120,74.7C1173.3,85,1227,75,1280,64C1333.3,53,1387,43,1413,37.3L1440,32L1440,320L1413.3,320C1386.7,320,1333,320,1280,320C1226.7,320,1173,320,1120,320C1066.7,320,1013,320,960,320C906.7,320,853,320,800,320C746.7,320,693,320,640,320C586.7,320,533,320,480,320C426.7,320,373,320,320,320C266.7,320,213,320,160,320C106.7,320,53,320,27,320L0,320Z"></path></svg>